<?xml version="1.0" standalone="yes"?>

<svg version="1.1" viewBox="0.0 0.0 953.4435695538058 288.5249343832021" fill="none" stroke="none" stroke-linecap="square" stroke-miterlimit="10" xmlns="http://www.w3.org/2000/svg" xmlns:xlink="http://www.w3.org/1999/xlink"><clipPath id="p.0"><path d="m0 0l953.44354 0l0 288.52493l-953.44354 0l0 -288.52493z" clip-rule="nonzero"></path></clipPath><g clip-path="url(#p.0)"><path fill="#000000" fill-opacity="0.0" d="m0 0l953.44354 0l0 288.52493l-953.44354 0z" fill-rule="evenodd"></path><path fill="#666666" d="m138.92398 135.88228l0 0c-11.576241 -9.645416 -10.716064 -29.753822 1.9212646 -44.91339l0 0c12.637314 -15.159561 32.26628 -19.629662 43.842514 -9.984253l0 0c11.576233 9.645416 10.716064 29.753822 -1.9212646 44.91339l0 0c-12.637314 15.159561 -32.26628 19.62967 -43.842514 9.984253z" fill-rule="evenodd"></path><path stroke="#ffffff" stroke-width="3.0" stroke-linejoin="round" stroke-linecap="butt" d="m138.92398 135.88228l0 0c-11.576241 -9.645416 -10.716064 -29.753822 1.9212646 -44.91339l0 0c12.637314 -15.159561 32.26628 -19.629662 43.842514 -9.984253l0 0c11.576233 9.645416 10.716064 29.753822 -1.9212646 44.91339l0 0c-12.637314 15.159561 -32.26628 19.62967 -43.842514 9.984253z" fill-rule="evenodd"></path><path fill="#000000" fill-opacity="0.0" d="m225.15749 63.99475l733.8583 0l0 160.53543l-733.8583 0z" fill-rule="evenodd"></path><path fill="#000000" d="m246.95436 100.906006q0 -2.1875 1.46875 -3.59375q1.484375 -1.40625 3.53125 -1.40625q2.171875 0 3.578125 1.40625q1.4062347 1.40625 1.4062347 3.59375l0 89.984375q0 2.046875 -1.4062347 3.515625q-1.40625 1.46875 -3.578125 1.46875q-2.046875 0 -3.53125 -1.46875q-1.46875 -1.46875 -1.46875 -3.515625l0 -89.984375zm65.92775 24.1875q5.375 0 8.5 1.40625q3.140625 1.40625 3.140625 3.96875q0 0.765625 -0.125 1.15625q-0.515625 1.78125 -1.609375 2.421875q-1.078125 0.640625 -3.0 0.640625q-1.15625 0 -3.96875 -0.25q-1.015625 -0.125 -3.0625 -0.125q-9.609375 0 -15.6875 5.125q-6.078125 5.109375 -6.078125 13.296875l0 38.28125q0 2.296875 -1.28125 3.578125q-1.28125 1.28125 -3.578125 1.28125q-2.3125 0 -3.59375 -1.28125q-1.28125 -1.28125 -1.28125 -3.578125l0 -60.296875q0 -2.296875 1.28125 -3.578125q1.28125 -1.28125 3.59375 -1.28125q2.296875 0 3.578125 1.28125q1.28125 1.28125 1.28125 3.578125l0 5.640625q3.703125 -5.375 9.46875 -8.3125q5.765625 -2.953125 12.421875 -2.953125zm58.873993 0.125q10.109375 0 18.171875 4.609375q8.0625 4.609375 12.734375 12.796875q4.671875 8.1875 4.671875 18.3125q0 10.109375 -4.609375 18.234375q-4.59375 8.125 -12.734375 12.734375q-8.125 4.609375 -18.234375 4.609375q-10.109375 0 -18.234375 -4.609375q-8.125 -4.609375 -12.734375 -12.734375q-4.609375 -8.125 -4.609375 -18.234375q0 -10.125 4.609375 -18.3125q4.609375 -8.1875 12.734375 -12.796875q8.125 -4.609375 18.234375 -4.609375zm0 8.953125q-7.296875 0 -13.25 3.46875q-5.953125 3.453125 -9.34375 9.53125q-3.390625 6.078125 -3.390625 13.765625q0 7.546875 3.390625 13.625q3.390625 6.078125 9.34375 9.546875q5.953125 3.453125 13.25 3.453125q7.421875 0 13.3125 -3.453125q5.890625 -3.46875 9.21875 -9.546875q3.328125 -6.078125 3.328125 -13.625q0 -7.6875 -3.328125 -13.765625q-3.328125 -6.078125 -9.21875 -9.53125q-5.890625 -3.46875 -13.3125 -3.46875zm87.93729 -9.078125q9.09375 0 16.3125 3.84375q7.2343445 3.828125 11.3280945 11.1875q4.109375 7.359375 4.109375 17.609375l0 33.28125q0 2.046875 -1.421875 3.453125q-1.40625 1.40625 -3.453125 1.40625q-2.171875 0 -3.578125 -1.40625q-1.40625 -1.40625 -1.40625 -3.453125l0 -33.28125q0 -11.390625 -6.3437195 -17.34375q-6.328125 -5.953125 -16.578125 -5.953125q-6.265625 0 -11.328125 2.4375q-5.046875 2.421875 -8.0 6.71875q-2.9375 4.28125 -2.9375 9.53125l0 37.890625q0 2.171875 -1.34375 3.515625q-1.34375 1.34375 -3.515625 1.34375q-2.171875 0 -3.59375 -1.34375q-1.40625 -1.34375 -1.40625 -3.515625l0 -60.171875q0 -2.171875 1.40625 -3.578125q1.421875 -1.40625 3.59375 -1.40625q2.171875 0 3.515625 1.40625q1.34375 1.40625 1.34375 3.578125l0 4.359375q4.21875 -4.734375 10.234375 -7.421875q6.015625 -2.6875 13.0625 -2.6875zm119.93729 -29.1875q1.921875 0 3.125 1.34375q1.21875 1.34375 1.21875 3.265625q0 1.796875 -0.890625 3.203125l-34.9375 55.171875l0 32.0q0 2.046875 -1.421875 3.515625q-1.40625 1.46875 -3.578125 1.46875q-2.046875 0 -3.515625 -1.46875q-1.46875 -1.46875 -1.46875 -3.515625l0 -32.0l-34.828156 -55.171875q-1.015625 -1.671875 -1.015625 -3.203125q0 -1.921875 1.40625 -3.265625q1.40625 -1.34375 3.453125 -1.34375q1.40625 0 2.359375 0.578125q0.96875 0.578125 1.875 1.859375l31.859406 51.328125l31.75 -51.078125q1.03125 -1.40625 2.046875 -2.046875q1.03125 -0.640625 2.5625 -0.640625zm46.334595 29.3125q9.46875 0 16.765625 4.421875q7.296875 4.40625 11.328125 12.21875q4.03125 7.8125 4.03125 17.796875q0 2.046875 -1.28125 3.265625q-1.28125 1.203125 -3.328125 1.203125l-51.703125 0q1.015625 10.5 8.1875 17.03125q7.171875 6.53125 17.921875 6.53125q4.609375 0 9.28125 -1.59375q4.671875 -1.609375 7.484375 -4.046875q1.671875 -1.28125 3.453125 -1.28125q1.40625 0 2.8125 1.03125q1.671875 1.53125 1.671875 3.453125q0 1.671875 -1.40625 2.9375q-4.21875 3.59375 -10.75 5.96875q-6.53125 2.359375 -12.546875 2.359375q-10.234375 0 -18.3125 -4.546875q-8.0625 -4.546875 -12.609375 -12.671875q-4.53125 -8.125 -4.53125 -18.359375q0 -10.375 4.28125 -18.5q4.296875 -8.125 11.90625 -12.671875q7.609375 -4.546875 17.34375 -4.546875zm0 8.828125q-9.734375 0 -16.140625 6.015625q-6.390625 6.015625 -7.796875 15.875l46.84375 0q-1.015625 -9.859375 -7.171875 -15.875q-6.140625 -6.015625 -15.734375 -6.015625zm80.638916 -8.828125q9.984375 0 18.109375 4.671875q8.125 4.671875 12.796814 12.875q4.671875 8.1875 4.671875 18.171875l0 30.078125q0 2.046875 -1.40625 3.453125q-1.40625 1.40625 -3.578125 1.40625q-2.171814 0 -3.593689 -1.34375q-1.40625 -1.34375 -1.40625 -3.515625l0 -7.6875q-4.46875 6.140625 -11.390625 9.671875q-6.90625 3.515625 -15.21875 3.515625q-9.734375 0 -17.609375 -4.671875q-7.875 -4.671875 -12.421875 -12.796875q-4.53125 -8.125 -4.53125 -18.109375q0 -9.984375 4.671875 -18.171875q4.671875 -8.203125 12.796875 -12.875q8.125 -4.671875 18.109375 -4.671875zm0 62.34375q7.296875 0 13.1875 -3.453125q5.890625 -3.46875 9.28125 -9.546875q3.390625 -6.078125 3.390625 -13.625q0 -7.5625 -3.390625 -13.640625q-3.390625 -6.078125 -9.28125 -9.59375q-5.890625 -3.53125 -13.1875 -3.53125q-7.296875 0 -13.25 3.53125q-5.953125 3.515625 -9.34375 9.59375q-3.390625 6.078125 -3.390625 13.640625q0 7.546875 3.390625 13.625q3.390625 6.078125 9.34375 9.546875q5.953125 3.453125 13.25 3.453125zm78.98413 -62.34375q8.4375 0 14.703125 2.890625q6.28125 2.875 10.125 7.984375q1.015625 1.671875 1.015625 2.953125q0 2.171875 -2.046875 3.453125q-0.890625 0.640625 -2.421875 0.640625q-2.6875 0 -4.484375 -1.921875q-6.265625 -7.171875 -17.15625 -7.171875q-7.03125 0 -11.265625 2.890625q-4.21875 2.875 -4.21875 7.21875q0 4.609375 3.96875 7.375q3.96875 2.75 14.078125 4.40625q13.703125 2.3125 19.578125 7.5q5.890625 5.171875 5.890625 12.859375q0 5.875 -3.515625 10.484375q-3.515625 4.609375 -9.796875 7.171875q-6.265625 2.5625 -14.203125 2.5625q-7.9375 0 -15.234375 -2.6875q-7.296875 -2.6875 -11.78125 -7.546875q-1.265625 -1.546875 -1.265625 -2.953125q0 -2.171875 2.046875 -3.84375q1.53125 -1.140625 3.1875 -1.140625q2.1875 0 3.71875 1.78125q3.078125 3.59375 8.125 5.515625q5.0625 1.921875 11.203125 1.921875q8.953125 0 13.4375 -3.078125q4.484375 -3.078125 4.609375 -8.0625q0 -4.609375 -4.484375 -7.671875q-4.46875 -3.078125 -14.203125 -4.625q-12.546875 -2.046875 -18.75 -7.09375q-6.203125 -5.0625 -6.203125 -12.234375q0 -9.34375 7.21875 -14.453125q7.234375 -5.125 18.125 -5.125zm75.648254 60.796875q2.046875 0 3.3125 1.40625q1.28125 1.40625 1.28125 3.59375q0 2.046875 -1.53125 3.453125q-1.53125 1.40625 -3.84375 1.40625l-2.6875 0q-6.78125 0 -12.15625 -3.265625q-5.375 -3.265625 -8.390625 -8.828125q-3.0 -5.5625 -3.0 -12.609375l0 -34.171875l-8.3125 0q-2.0625 0 -3.28125 -1.21875q-1.203125 -1.21875 -1.203125 -3.015625q0 -1.921875 1.203125 -3.125q1.21875 -1.21875 3.28125 -1.21875l8.3125 0l0 -19.84375q0 -2.171875 1.34375 -3.578125q1.34375 -1.40625 3.515625 -1.40625q2.1875 0 3.59375 1.40625q1.40625 1.40625 1.40625 3.578125l0 19.84375l14.46875 0q2.046875 0 3.25 1.21875q1.21875 1.203125 1.21875 3.125q0 1.796875 -1.21875 3.015625q-1.203125 1.21875 -3.25 1.21875l-14.46875 0l0 34.171875q0 6.53125 3.828125 10.6875q3.84375 4.15625 9.859375 4.15625l3.46875 0zm44.799744 -60.796875q8.4375 0 14.703125 2.890625q6.28125 2.875 10.125 7.984375q1.015625 1.671875 1.015625 2.953125q0 2.171875 -2.046875 3.453125q-0.890625 0.640625 -2.421875 0.640625q-2.6875 0 -4.484375 -1.921875q-6.265625 -7.171875 -17.15625 -7.171875q-7.03125 0 -11.265625 2.890625q-4.21875 2.875 -4.21875 7.21875q0 4.609375 3.96875 7.375q3.96875 2.75 14.078125 4.40625q13.703125 2.3125 19.578125 7.5q5.890625 5.171875 5.890625 12.859375q0 5.875 -3.515625 10.484375q-3.515625 4.609375 -9.796875 7.171875q-6.265625 2.5625 -14.203125 2.5625q-7.9375 0 -15.234375 -2.6875q-7.296875 -2.6875 -11.78125 -7.546875q-1.265625 -1.546875 -1.265625 -2.953125q0 -2.171875 2.046875 -3.84375q1.53125 -1.140625 3.1875 -1.140625q2.1875 0 3.71875 1.78125q3.078125 3.59375 8.125 5.515625q5.0625 1.921875 11.203125 1.921875q8.953125 0 13.4375 -3.078125q4.484375 -3.078125 4.609375 -8.0625q0 -4.609375 -4.484375 -7.671875q-4.46875 -3.078125 -14.203125 -4.625q-12.546875 -2.046875 -18.75 -7.09375q-6.203125 -5.0625 -6.203125 -12.234375q0 -9.34375 7.21875 -14.453125q7.234375 -5.125 18.125 -5.125z" fill-rule="nonzero"></path><path fill="#666666" d="m52.923965 197.88028l0 0c-15.0378 -21.908752 -1.8319626 -57.098465 29.496063 -78.59843l0 0c31.328026 -21.49997 68.91495 -21.168587 83.95276 0.7401581l0 0c15.037796 21.908745 1.831955 57.098457 -29.496063 78.59843l0 0c-31.328026 21.49997 -68.914955 21.16858 -83.95276 -0.7401581z" fill-rule="evenodd"></path><path stroke="#ffffff" stroke-width="3.0" stroke-linejoin="round" stroke-linecap="butt" d="m52.923965 197.88028l0 0c-15.0378 -21.908752 -1.8319626 -57.098465 29.496063 -78.59843l0 0c31.328026 -21.49997 68.91495 -21.168587 83.95276 0.7401581l0 0c15.037796 21.908745 1.831955 57.098457 -29.496063 78.59843l0 0c-31.328026 21.49997 -68.914955 21.16858 -83.95276 -0.7401581z" fill-rule="evenodd"></path><path fill="#666666" d="m78.2362 154.46458l0 0c-7.749382 3.4441833 -17.782436 -2.2174835 -22.40945 -12.64566l0 0c-4.627014 -10.428177 -2.0958366 -21.673943 5.6535416 -25.11811l0 0c7.749386 -3.444168 17.782436 2.2174911 22.40945 12.645668l0 0c4.627014 10.428177 2.0958405 21.673935 -5.6535416 25.118103z" fill-rule="evenodd"></path><path stroke="#ffffff" stroke-width="3.0" stroke-linejoin="round" stroke-linecap="butt" d="m78.2362 154.46458l0 0c-7.749382 3.4441833 -17.782436 -2.2174835 -22.40945 -12.64566l0 0c-4.627014 -10.428177 -2.0958366 -21.673943 5.6535416 -25.11811l0 0c7.749386 -3.444168 17.782436 2.2174911 22.40945 12.645668l0 0c4.627014 10.428177 2.0958405 21.673935 -5.6535416 25.118103z" fill-rule="evenodd"></path></g></svg>

